<svg viewBox="0 0 200 160" xmlns="http://www.w3.org/2000/svg" role="img" aria-label="Invoices empty state illustration">
  <rect x="0" y="0" width="200" height="160" fill="#ffffff"/>

  <g fill="none" stroke-linecap="round" stroke-linejoin="round">
    <path
      d="M62 28h54l22 22v78a8 8 0 0 1-8 8H62a8 8 0 0 1-8-8V36a8 8 0 0 1 8-8Z"
      fill="#f5f5f0"
      stroke="#1e3d2f"
      stroke-width="2"
    />

    <path
      d="M116 28v18a4 4 0 0 0 4 4h18"
      stroke="#1e3d2f"
      stroke-width="2"
    />

    <path d="M72 68h42" stroke="#dfe8df" stroke-width="4"/>
    <path d="M72 84h52" stroke="#dfe8df" stroke-width="4"/>
    <path d="M72 100h30" stroke="#dfe8df" stroke-width="4"/>

    <circle cx="142" cy="108" r="20" fill="#ffffff" stroke="#3d9e4f" stroke-width="2"/>
    <path d="M142 99v18M133 108h18" stroke="#3d9e4f" stroke-width="2.5"/>

    <path d="M151 38l2.5 5 5 2.5-5 2.5-2.5 5-2.5-5-5-2.5 5-2.5 2.5-5Z" fill="#3d9e4f" stroke="none" opacity="0.85"/>
    <circle cx="49" cy="52" r="3" fill="#dfe8df" stroke="none"/>
    <circle cx="154" cy="76" r="2.5" fill="#dfe8df" stroke="none"/>
  </g>
</svg>