<svg width="100%" viewBox="0 0 680 420" role="img" xmlns="http://www.w3.org/2000/svg">
  <title>Freelax dashboard mockup</title>
  <desc>Mini preview of the Freelax dashboard</desc>
  <defs>
    <style>
      .nav { font-family: 'Plus Jakarta Sans', system-ui, sans-serif; font-size: 10px; fill: rgba(255,255,255,0.4); }
      .label { font-family: 'Plus Jakarta Sans', system-ui, sans-serif; font-size: 8px; font-weight: 600; fill: #94A3B8; letter-spacing: 0.08em; }
      .hero { font-family: 'Plus Jakarta Sans', system-ui, sans-serif; font-size: 20px; font-weight: 700; fill: #0F172A; }
      .sub { font-family: 'Plus Jakarta Sans', system-ui, sans-serif; font-size: 8px; fill: #94A3B8; }
      .green { font-family: 'Plus Jakarta Sans', system-ui, sans-serif; font-size: 8px; fill: #1D6B35; }
      .amber { font-family: 'Plus Jakarta Sans', system-ui, sans-serif; font-size: 8px; fill: #9A7B0A; }
      .heading { font-family: 'Plus Jakarta Sans', system-ui, sans-serif; font-size: 12px; font-weight: 700; fill: #0F172A; }
      .page-title { font-family: 'Plus Jakarta Sans', system-ui, sans-serif; font-size: 12px; font-weight: 700; fill: #0F172A; }
      .page-sub { font-family: 'Plus Jakarta Sans', system-ui, sans-serif; font-size: 9px; fill: #94A3B8; }
      .row { font-family: 'Plus Jakarta Sans', system-ui, sans-serif; font-size: 9px; fill: #64748B; }
      .row-link { font-family: 'Plus Jakarta Sans', system-ui, sans-serif; font-size: 9px; fill: #3B82F6; }
      .row-bold { font-family: 'Plus Jakarta Sans', system-ui, sans-serif; font-size: 9px; font-weight: 600; fill: #0F172A; }
      .white { font-family: 'Plus Jakarta Sans', system-ui, sans-serif; font-size: 18px; font-weight: 700; fill: #fff; }
      .white-sub { font-family: 'Plus Jakarta Sans', system-ui, sans-serif; font-size: 8px; fill: rgba(255,255,255,0.4); }
      .white-med { font-family: 'Plus Jakarta Sans', system-ui, sans-serif; font-size: 12px; font-weight: 600; fill: #fff; }
      .white-sm { font-family: 'Plus Jakarta Sans', system-ui, sans-serif; font-size: 8px; fill: rgba(255,255,255,0.9); font-weight: 600; }
      .action-label { font-family: 'Plus Jakarta Sans', system-ui, sans-serif; font-size: 8px; font-weight: 600; fill: #9A7B0A; letter-spacing: 0.1em; }
      .action-row { font-family: 'Plus Jakarta Sans', system-ui, sans-serif; font-size: 9px; font-weight: 500; fill: #1E293B; }
    </style>
  </defs>
  <rect x="40" y="10" width="600" height="400" rx="12" fill="#111111"/>
  <rect x="40" y="10" width="600" height="36" rx="12" fill="#1a1a1a"/>
  <rect x="40" y="34" width="600" height="12" fill="#1a1a1a"/>
  <circle cx="62" cy="28" r="4" fill="#333"/>
  <circle cx="76" cy="28" r="4" fill="#333"/>
  <circle cx="90" cy="28" r="4" fill="#333"/>
  <text x="110" y="32" class="nav" font-weight="700" fill="rgba(255,255,255,0.9)">Freelax</text>
  <text x="175" y="32" class="nav">Dashboard</text>
  <text x="240" y="32" class="nav">Invoices</text>
  <text x="295" y="32" class="nav">Tax</text>
  <text x="330" y="32" class="nav">Expenses</text>
  <text x="570" y="32" class="nav">Sign out</text>
  <rect x="40" y="46" width="600" height="352" fill="#FAFAF7"/>
  <rect x="40" y="388" width="600" height="22" rx="12" fill="#FAFAF7"/>
  <text x="60" y="72" class="page-title">Good morning. Here's your picture.</text>
  <text x="60" y="85" class="page-sub">Monday 26 April · Tax year 2026/27</text>
  <rect x="60" y="96" width="168" height="88" rx="8" fill="#F5F4EE" stroke="#E2E8F0" stroke-width="0.5"/>
  <text x="72" y="112" class="label">EARNED THIS YEAR</text>
  <text x="72" y="134" class="hero">£16,775</text>
  <text x="72" y="148" class="sub">Income minus expenses</text>
  <text x="72" y="160" class="sub">across the tax year</text>
  <text x="72" y="175" class="green">↑ 12% vs last year</text>
  <rect x="238" y="96" width="168" height="88" rx="8" fill="#fff" stroke="#E2E8F0" stroke-width="0.5"/>
  <text x="250" y="112" class="label">TAX SET ASIDE</text>
  <text x="250" y="134" class="hero">£770</text>
  <text x="250" y="148" class="sub">of £5,593 needed · Jan 2028</text>
  <rect x="250" y="155" width="144" height="3" rx="1.5" fill="rgba(0,0,0,0.06)"/>
  <rect x="250" y="155" width="20" height="3" rx="1.5" fill="#C0392B"/>
  <text x="250" y="170" class="amber">Save £52/week to stay on track</text>
  <text x="250" y="180" class="sub">14% of target · £4,823 to go</text>
  <rect x="416" y="96" width="184" height="88" rx="8" fill="#fff" stroke="#E2E8F0" stroke-width="0.5"/>
  <text x="428" y="112" class="label">SAFE TO SPEND</text>
  <text x="428" y="134" class="hero">£2,847</text>
  <text x="428" y="148" class="sub">After tax and outgoings</text>
  <text x="428" y="160" class="sub">genuinely safe this month</text>
  <circle cx="428" cy="172" r="3" fill="#1D6B35"/>
  <text x="436" y="175" class="green">On track for January</text>
  <rect x="60" y="196" width="540" height="40" rx="8" fill="#FFFDF5" stroke="rgba(245,226,155,0.6)" stroke-width="0.5"/>
  <text x="75" y="211" class="action-label">DO THIS NOW</text>
  <circle cx="75" cy="224" r="3" fill="#C0392B"/>
  <text x="83" y="227" class="action-row">INV-0017 is overdue · Britnova Ltd · 22 days late</text>
  <circle cx="310" cy="224" r="3" fill="#9A7B0A"/>
  <text x="318" y="227" class="action-row">Clearance project — IR35 needs review</text>
  <rect x="60" y="248" width="316" height="144" rx="8" fill="#fff" stroke="#E2E8F0" stroke-width="0.5"/>
  <text x="74" y="266" class="heading">Recent invoices</text>
  <line x1="60" y1="272" x2="376" y2="272" stroke="#F1F5F9" stroke-width="0.5"/>
  <text x="74" y="287" class="row-link">INV-0017</text>
  <text x="154" y="287" class="row">Britnova Ltd</text>
  <text x="284" y="287" class="row-bold">£438</text>
  <rect x="322" y="279" width="40" height="13" rx="4" fill="#FDECEA"/>
  <text x="326" y="289" font-family="'Plus Jakarta Sans', system-ui, sans-serif" font-size="8" fill="#C0392B">Overdue</text>
  <line x1="74" y1="296" x2="362" y2="296" stroke="#F8FAFC" stroke-width="0.5"/>
  <text x="74" y="311" class="row-link">INV-0016</text>
  <text x="154" y="311" class="row">London Ltd</text>
  <text x="284" y="311" class="row-bold">£558</text>
  <rect x="326" y="303" width="28" height="13" rx="4" fill="#EBF4FD"/>
  <text x="330" y="313" font-family="'Plus Jakarta Sans', system-ui, sans-serif" font-size="8" fill="#1A5E8A">Sent</text>
  <line x1="74" y1="320" x2="362" y2="320" stroke="#F8FAFC" stroke-width="0.5"/>
  <text x="74" y="335" class="row-link">INV-0014</text>
  <text x="154" y="335" class="row">London Ltd</text>
  <text x="284" y="335" class="row-bold">£258</text>
  <rect x="326" y="327" width="28" height="13" rx="4" fill="#EAFAF0"/>
  <text x="330" y="337" font-family="'Plus Jakarta Sans', system-ui, sans-serif" font-size="8" fill="#1D6B35">Paid</text>
  <line x1="74" y1="344" x2="362" y2="344" stroke="#F8FAFC" stroke-width="0.5"/>
  <text x="74" y="359" class="row-link">INV-0013</text>
  <text x="154" y="359" class="row">Royal Partners</text>
  <text x="284" y="359" class="row-bold">£390</text>
  <rect x="326" y="351" width="28" height="13" rx="4" fill="#EAFAF0"/>
  <text x="330" y="361" font-family="'Plus Jakarta Sans', system-ui, sans-serif" font-size="8" fill="#1D6B35">Paid</text>
  <text x="74" y="383" font-family="'Plus Jakarta Sans', system-ui, sans-serif" font-size="8" fill="#1D6B35">View all invoices →</text>
  <rect x="388" y="248" width="212" height="144" rx="8" fill="#111" stroke="#222" stroke-width="0.5"/>
  <text x="402" y="266" class="white-sm">Tax summary · 2026/27</text>
  <text x="402" y="280" class="white-sub">Sole trader</text>
  <text x="402" y="298" class="white-sub">TAX OWED</text>
  <text x="402" y="318" class="white">£5,593</text>
  <text x="402" y="330" class="white-sub">by 31 January 2028</text>
  <line x1="402" y1="338" x2="588" y2="338" stroke="rgba(255,255,255,0.08)" stroke-width="0.5"/>
  <text x="402" y="352" class="white-sub">Effective rate</text>
  <text x="402" y="366" class="white-med">24.8%</text>
  <text x="480" y="352" class="white-sub">Take-home</text>
  <text x="480" y="366" font-family="'Plus Jakarta Sans', system-ui, sans-serif" font-size="12" font-weight="600" fill="#4ADE80">£33,432</text>
  <text x="402" y="383" class="green">645 days until deadline →</text>
</svg>
